<?xml version="1.0" standalone="no"?>
<!DOCTYPE svg PUBLIC "-//W3C//DTD SVG 20010904//EN"
 "http://www.w3.org/TR/2001/REC-SVG-20010904/DTD/svg10.dtd">
<svg version="1.0" xmlns="http://www.w3.org/2000/svg"
 width="200.000000pt" height="200.000000pt" viewBox="0 0 200.000000 200.000000"
 preserveAspectRatio="xMidYMid meet">

<g transform="translate(0.000000,200.000000) scale(0.100000,-0.100000)"
fill="#000000" stroke="none">
<path d="M0 1000 l0 -1000 1000 0 1000 0 0 1000 0 1000 -1000 0 -1000 0 0
-1000z m715 360 c30 -11 48 -51 39 -86 -9 -34 -37 -27 -44 11 -4 24 -10 30
-30 30 -39 0 -36 -31 8 -83 43 -51 72 -102 72 -126 0 -52 -51 -89 -108 -78
-30 6 -54 44 -50 79 4 41 41 39 48 -2 4 -24 10 -30 30 -30 39 0 29 45 -24 110
-24 30 -47 68 -51 83 -15 71 41 118 110 92z m765 -25 c0 -28 4 -35 20 -35 13
0 20 -7 20 -20 0 -13 -7 -20 -20 -20 -19 0 -20 -7 -20 -95 0 -89 1 -95 21 -95
32 0 20 -34 -14 -38 -49 -6 -57 10 -57 121 0 83 -3 102 -17 113 -17 13 -17 15
-1 28 10 7 21 27 24 45 5 21 12 31 25 31 15 0 19 -7 19 -35z m-1227 -86 c16
-118 100 -231 212 -284 51 -24 73 -29 145 -29 47 -1 100 3 118 7 25 7 32 6 32
-6 0 -15 -73 -37 -120 -37 -25 0 -25 8 9 -135 17 -71 24 -122 18 -124 -15 -6
-22 13 -51 140 -26 112 -29 119 -54 125 -15 3 -47 12 -71 20 -25 8 -47 11 -50
8 -3 -3 -29 -69 -56 -147 -28 -77 -56 -142 -63 -145 -19 -6 -15 12 39 164 l51
144 -61 59 c-72 69 -119 161 -128 247 -5 46 -3 56 8 52 8 -3 17 -27 22 -59z
m582 -10 c4 -33 11 -73 15 -87 8 -26 8 -26 9 -3 1 13 6 52 13 87 10 56 14 64
34 64 19 0 23 -8 35 -81 14 -89 22 -84 34 24 6 52 8 57 31 57 19 0 24 -4 21
-17 -3 -10 -13 -71 -23 -136 -18 -116 -18 -118 -43 -115 -23 3 -26 10 -41 88
l-16 85 -13 -75 c-16 -99 -17 -100 -44 -100 -23 0 -25 6 -41 108 -10 59 -20
119 -23 135 -5 24 -2 27 20 27 23 0 26 -4 32 -61z m340 47 c15 -11 19 -27 20
-72 l0 -59 -47 -3 c-51 -3 -55 -10 -42 -59 8 -29 44 -31 44 -3 0 15 7 20 26
20 24 0 25 -3 19 -27 -9 -39 -27 -54 -64 -55 -49 -2 -72 28 -78 100 -7 75 2
127 28 153 22 22 67 25 94 5z m186 -7 c16 -16 19 -30 17 -72 l-3 -52 -47 -3
c-51 -3 -51 -3 -42 -51 8 -36 44 -45 44 -11 0 15 7 20 25 20 29 0 33 -24 9
-58 -23 -33 -88 -31 -110 3 -34 52 -30 189 7 226 25 25 74 24 100 -2z m-481
-389 l0 -70 30 0 30 0 0 70 c0 68 1 70 25 70 l25 0 0 -165 0 -165 -25 0 c-24
0 -25 2 -25 75 l0 75 -30 0 -30 0 0 -75 c0 -73 -1 -75 -25 -75 l-25 0 0 165 0
165 25 0 c24 0 25 -2 25 -70z m270 0 c49 -26 52 -211 4 -251 -25 -20 -75 -15
-96 10 -14 19 -18 40 -18 108 0 80 10 119 34 135 16 11 54 10 76 -2z m123 -2
c4 -10 7 -10 18 0 16 15 51 16 66 1 8 -8 17 -8 31 0 32 17 59 13 76 -11 12
-17 16 -49 16 -135 l0 -113 -25 0 -25 0 0 103 c0 107 -8 134 -34 124 -13 -5
-16 -25 -16 -117 l0 -110 -25 0 c-24 0 -24 0 -27 113 -3 104 -4 112 -23 112
-19 0 -20 -8 -23 -112 -3 -113 -3 -113 -27 -113 l-25 0 0 135 c0 126 1 135 19
135 11 0 21 -6 24 -12z m369 -5 c23 -26 31 -60 23 -99 -6 -33 -8 -34 -50 -34
-44 0 -45 0 -45 -34 0 -35 21 -63 40 -51 5 3 10 15 10 26 0 13 7 19 21 19 17
0 20 -5 17 -32 -4 -44 -45 -66 -88 -48 -39 16 -53 63 -48 157 3 64 7 78 27 94
29 24 73 24 93 2z"/>
<path d="M1106 1238 c-10 -39 -7 -48 19 -48 22 0 25 4 25 35 0 28 -4 35 -19
35 -11 0 -21 -9 -25 -22z"/>
<path d="M1290 1248 c0 -7 -3 -23 -6 -35 -5 -20 -2 -23 20 -23 23 0 26 4 26
35 0 28 -4 35 -20 35 -11 0 -20 -6 -20 -12z"/>
<path d="M1097 853 c-12 -11 -8 -181 4 -189 17 -10 28 8 35 58 12 87 -10 161
-39 131z"/>
<path d="M1576 845 c-13 -36 -7 -55 20 -55 23 0 25 3 22 32 -3 36 -31 51 -42
23z"/>
</g>
</svg>
