<?xml version="1.0" standalone="no"?>
<!DOCTYPE svg PUBLIC "-//W3C//DTD SVG 20010904//EN"
 "http://www.w3.org/TR/2001/REC-SVG-20010904/DTD/svg10.dtd">
<svg version="1.0" xmlns="http://www.w3.org/2000/svg"
 width="1200.000000pt" height="1200.000000pt" viewBox="0 0 1200.000000 1200.000000"
 preserveAspectRatio="xMidYMid meet">

<g transform="translate(0.000000,1200.000000) scale(0.100000,-0.100000)"
fill="#000000" stroke="none">
<path d="M0 6000 l0 -6000 6000 0 6000 0 0 6000 0 6000 -6000 0 -6000 0 0
-6000z m6868 3210 c471 -215 1358 -619 1969 -898 l1113 -507 0 -442 0 -443
630 0 630 0 0 -930 0 -930 -630 0 -630 0 0 -432 0 -433 -1113 -507 c-2411
-1099 -2826 -1288 -2837 -1288 -6 0 -208 90 -448 199 -1114 508 -3089 1408
-3285 1497 l-217 99 0 432 0 433 -645 0 -645 0 0 930 0 930 645 0 645 0 0 443
0 442 218 99 c337 153 2774 1264 3272 1492 245 112 451 203 458 204 7 0 399
-176 870 -390z"/>
<path d="M5510 9241 c-385 -176 -2359 -1077 -3145 -1435 l-180 -82 -3 -402 -2
-402 90 0 90 0 2 370 3 371 240 110 c132 61 906 414 1720 784 814 370 1524
693 1577 718 l97 45 813 -370 c447 -204 1265 -577 1818 -829 l1005 -458 3
-370 2 -371 90 0 90 0 -2 402 -3 402 -1110 506 c-2389 1089 -2700 1230 -2710
1229 -5 0 -224 -98 -485 -218z"/>
<path d="M5540 9046 c-483 -220 -2952 -1344 -3063 -1394 l-67 -31 0 -350 0
-351 3590 0 3590 0 -2 351 -3 351 -975 445 c-2101 957 -2600 1183 -2612 1183
-7 -1 -213 -92 -458 -204z m-150 -1341 c38 -19 49 -59 25 -85 -26 -29 -63 -26
-71 4 -15 59 -82 73 -106 21 -16 -36 12 -71 85 -104 110 -50 147 -113 110
-189 -29 -59 -73 -82 -157 -82 -82 0 -129 22 -140 65 -9 36 16 75 48 75 18 0
25 -7 29 -30 15 -71 90 -93 130 -38 32 43 13 70 -81 117 -92 46 -112 71 -112
138 1 52 14 76 57 105 35 23 141 25 183 3z m1410 -65 l0 -40 40 0 c36 0 40 -2
40 -25 0 -22 -4 -25 -40 -25 l-40 0 0 -97 c0 -54 5 -105 10 -113 5 -8 24 -15
42 -15 24 0 34 -5 36 -19 2 -10 -2 -22 -10 -27 -18 -12 -115 -11 -138 1 -28
15 -40 65 -40 171 0 92 -1 99 -20 99 -31 0 -25 36 8 52 15 7 34 28 42 45 12
25 21 33 43 33 25 0 27 -3 27 -40z m-566 -51 c36 -28 56 -70 56 -119 l0 -40
-95 0 -95 0 0 -29 c0 -38 35 -81 66 -81 30 0 66 17 78 38 8 13 10 13 21 -2 33
-45 -20 -86 -112 -86 -93 0 -140 40 -157 132 -14 78 20 168 74 195 41 21 133
16 164 -8z m340 0 c36 -28 56 -70 56 -119 l0 -40 -95 0 -95 0 0 -29 c0 -38 35
-81 66 -81 30 0 66 17 78 38 8 13 10 13 21 -2 33 -45 -20 -86 -112 -86 -93 0
-140 40 -157 132 -14 78 20 168 74 195 41 21 133 16 164 -8z m-934 -9 c0 -13
-7 -20 -20 -20 -25 0 -25 -21 -2 -111 l18 -67 38 110 c36 103 40 109 64 106
23 -3 29 -14 60 -108 l35 -104 23 78 c25 84 24 96 -7 96 -12 0 -19 7 -19 20 0
18 7 20 75 20 68 0 75 -2 75 -20 0 -13 -7 -20 -19 -20 -21 0 -26 -10 -76 -167
l-36 -113 -37 0 -38 0 -30 93 -30 92 -31 -90 -30 -90 -40 -3 c-37 -3 -41 -1
-47 25 -4 15 -23 78 -42 139 -26 87 -38 113 -54 117 -11 3 -20 12 -20 21 0 14
15 16 95 16 88 0 95 -1 95 -20z"/>
<path d="M6120 7550 c-11 -11 -20 -33 -20 -50 0 -29 2 -30 45 -30 43 0 45 2
45 28 0 29 -24 72 -41 72 -5 0 -18 -9 -29 -20z"/>
<path d="M6460 7550 c-11 -11 -20 -33 -20 -50 0 -29 2 -30 45 -30 43 0 45 2
45 28 0 29 -24 72 -41 72 -5 0 -18 -9 -29 -20z"/>
<path d="M900 5990 l0 -790 5090 0 5090 0 0 790 0 790 -5090 0 -5090 0 0 -790z
m9970 10 l0 -580 -4882 2 -4883 3 -3 565 c-1 311 0 571 3 578 3 9 990 12 4885
12 l4880 0 0 -580z"/>
<path d="M1160 6000 l0 -520 4830 0 4830 0 0 520 0 520 -4830 0 -4830 0 0
-520z m3890 275 c0 -21 -5 -25 -28 -25 -46 0 -52 -15 -52 -122 l0 -98 110 0
111 0 -3 108 -3 107 -35 5 c-27 4 -36 10 -38 28 -3 22 -3 22 147 22 l151 0 0
-25 c0 -21 -5 -25 -28 -25 -51 0 -52 -7 -52 -251 0 -125 3 -234 6 -243 4 -10
18 -16 40 -16 30 0 34 -3 34 -25 l0 -25 -150 0 -150 0 0 24 c0 21 5 25 38 28
l37 3 3 118 3 117 -111 0 -110 0 0 -108 c0 -117 6 -132 52 -132 23 0 28 -4 28
-25 l0 -25 -151 0 c-150 0 -150 0 -147 23 2 17 11 23 38 27 l35 5 0 250 0 250
-37 3 c-33 3 -38 7 -38 28 l0 24 150 0 150 0 0 -25z m745 -134 c89 -40 135
-139 121 -261 -17 -141 -97 -207 -240 -198 -125 8 -194 78 -204 207 -9 131 36
226 123 256 57 20 152 18 200 -4z m578 10 c14 -6 36 -22 50 -37 25 -26 25 -27
36 -5 31 57 164 70 217 20 44 -41 48 -58 54 -224 l5 -159 25 -6 c16 -4 26 -14
28 -28 3 -21 1 -22 -97 -22 l-101 0 0 174 c0 153 -2 176 -18 196 -20 25 -63
30 -87 10 -24 -20 -35 -78 -35 -188 0 -110 9 -142 40 -142 15 0 20 -7 20 -25
0 -25 0 -25 -95 -25 l-95 0 0 159 c0 91 -5 172 -11 190 -15 42 -52 58 -86 36
-36 -24 -43 -55 -43 -189 0 -126 6 -146 42 -146 13 0 18 -8 18 -25 l0 -25
-130 0 -130 0 0 25 c0 18 5 25 19 25 37 0 44 25 45 163 2 177 0 187 -35 199
-19 6 -29 17 -29 29 0 18 7 20 92 17 l93 -3 5 -30 c6 -30 6 -30 18 -8 7 13 25
29 40 37 31 17 109 21 145 7z m769 -3 c56 -17 104 -73 118 -142 21 -104 26
-101 -136 -104 l-141 -3 8 -44 c16 -83 38 -105 109 -105 45 0 94 21 108 46 13
24 32 8 32 -26 0 -60 -88 -99 -199 -88 -115 11 -181 85 -189 211 -7 123 28
204 108 245 50 25 120 29 182 10z"/>
<path d="M5648 6088 c-29 -22 -39 -67 -39 -170 0 -71 5 -108 17 -133 26 -56
91 -61 128 -12 19 25 21 42 21 147 0 105 -2 122 -21 147 -24 32 -78 42 -106
21z"/>
<path d="M7027 6088 c-20 -16 -37 -60 -37 -99 l0 -29 71 0 72 0 -5 50 c-8 76
-54 113 -101 78z"/>
<path d="M2182 4668 l3 -392 170 -77 c2011 -918 2801 -1278 3183 -1451 l463
-210 797 363 c438 200 1297 591 1907 869 l1110 506 3 392 2 392 -90 0 -90 0
-2 -361 -3 -360 -1005 -458 c-553 -252 -1371 -625 -1818 -829 l-813 -370 -87
40 c-48 22 -787 359 -1642 748 -855 389 -1634 744 -1730 788 l-175 81 -3 361
-2 360 -90 0 -90 0 2 -392z"/>
<path d="M2410 4719 l0 -340 68 -31 c37 -17 645 -294 1352 -615 2021 -920
2159 -983 2170 -983 11 0 589 262 2610 1183 l975 444 3 342 2 341 -3590 0
-3590 0 0 -341z m3959 -196 c105 -125 113 -138 101 -157 -26 -41 -463 -596
-470 -596 -8 0 -460 573 -474 601 -6 13 17 47 105 153 l114 136 255 0 255 0
114 -137z m-1279 -113 c36 -43 65 -85 65 -92 0 -14 -285 -387 -295 -387 -10 0
-295 374 -295 387 0 7 29 49 65 92 l65 79 165 0 165 0 65 -79z m2280 0 c36
-43 65 -85 65 -92 0 -13 -285 -387 -295 -387 -10 0 -295 374 -295 387 0 7 29
49 65 92 l65 79 165 0 165 0 65 -79z"/>
<path d="M5721 4495 l-61 -75 78 0 79 0 47 70 c25 38 46 72 46 75 0 3 -29 5
-64 5 l-63 0 -62 -75z"/>
<path d="M6090 4565 c0 -3 21 -37 46 -75 l47 -70 79 0 78 0 -61 75 -62 75 -63
0 c-35 0 -64 -2 -64 -5z"/>
<path d="M5963 4480 c-18 -27 -33 -52 -33 -55 0 -3 32 -5 70 -5 39 0 70 2 70
5 0 8 -64 105 -70 105 -3 0 -20 -23 -37 -50z"/>
<path d="M5672 4322 c49 -68 212 -271 215 -269 3 3 -21 96 -58 220 l-20 67
-75 0 c-70 0 -74 -1 -62 -18z"/>
<path d="M5903 4328 c2 -7 24 -82 48 -165 24 -84 46 -153 49 -153 3 0 18 44
32 98 15 53 36 127 47 165 l20 67 -101 0 c-76 0 -99 -3 -95 -12z"/>
<path d="M6171 4273 c-37 -124 -61 -217 -58 -220 3 -2 166 201 215 269 12 17
8 18 -62 18 l-75 0 -20 -67z"/>
<path d="M4714 4418 c-11 -13 -28 -33 -38 -45 l-19 -23 46 0 c43 0 48 3 77 45
l31 45 -39 0 c-28 0 -44 -6 -58 -22z"/>
<path d="M4940 4396 c29 -43 34 -46 77 -46 l46 0 -35 43 c-30 36 -42 42 -78
45 l-42 3 32 -45z"/>
<path d="M4836 4375 l-16 -25 40 0 40 0 -16 25 c-9 14 -20 25 -24 25 -4 0 -15
-11 -24 -25z"/>
<path d="M4712 4209 c63 -82 81 -101 73 -77 -2 7 -13 46 -25 86 l-21 72 -45 0
-45 0 63 -81z"/>
<path d="M4803 4275 c4 -8 16 -50 28 -95 12 -44 25 -80 29 -80 4 0 17 36 29
80 12 45 24 87 28 95 4 12 -7 15 -57 15 -50 0 -61 -3 -57 -15z"/>
<path d="M4960 4218 c-12 -40 -23 -80 -26 -88 -4 -16 18 9 92 103 l45 57 -45
0 -45 0 -21 -72z"/>
<path d="M6994 4418 c-11 -13 -28 -33 -38 -45 l-19 -23 46 0 c43 0 48 3 77 45
l31 45 -39 0 c-28 0 -44 -6 -58 -22z"/>
<path d="M7220 4396 c29 -43 34 -46 77 -46 l46 0 -35 43 c-30 36 -42 42 -78
45 l-42 3 32 -45z"/>
<path d="M7116 4375 l-16 -25 40 0 40 0 -16 25 c-9 14 -20 25 -24 25 -4 0 -15
-11 -24 -25z"/>
<path d="M6974 4233 c74 -94 96 -119 92 -103 -3 8 -14 48 -26 88 l-21 72 -45
0 -45 0 45 -57z"/>
<path d="M7083 4275 c4 -8 16 -50 28 -95 12 -44 25 -80 29 -80 4 0 17 36 29
80 12 45 24 87 28 95 4 12 -7 15 -57 15 -50 0 -61 -3 -57 -15z"/>
<path d="M7240 4218 c-12 -40 -23 -80 -26 -88 -4 -16 18 9 92 103 l45 57 -45
0 -45 0 -21 -72z"/>
</g>
</svg>
